# xmcd
#
# Track frame offsets:
#	150
#	16726
#	37276
#	54064
#	66094
#	84431
#	99619
#	120785
#	139053
#	158957
#	167560
#
# Disc length: 2575 seconds
#
# Revision: 0
# Processed by: cddbd v1.5.1PL0 Copyright (c) Steve Scherf et al.
# Submitted via: EasyCDDAExtractor 8.2.1.1
#
DISCID=800a0d0b
DTITLE=Honey B. and the T. Bones - Terrifying stories from T-Bone Town
DYEAR=1900
DGENRE=
TTITLE0=FunkyWomen
TTITLE1=Big D. Never Sleeps
TTITLE2=Skull Flag
TTITLE3=Bo's Bounce
TTITLE4=Hot Dog Man
TTITLE5=On Somebody Else's Business
TTITLE6=Electric Eye
TTITLE7=Bones of Love
TTITLE8=Wolf Is Back
TTITLE9=Chicken Stuff
TTITLE10=Life's A Risky Business
EXTD=
EXTT0=
EXTT1=
EXTT2=
EXTT3=
EXTT4=
EXTT5=
EXTT6=
EXTT7=
EXTT8=
EXTT9=
EXTT10=
PLAYORDER=
